<?xml version="1.0" encoding="utf-8"?>
<!-- Generator: Adobe Illustrator 22.0.1, SVG Export Plug-In . SVG Version: 6.00 Build 0)  -->
<svg version="1.1" id="Layer_1" xmlns="http://www.w3.org/2000/svg" xmlns:xlink="http://www.w3.org/1999/xlink" x="0px" y="0px"
	 viewBox="0 0 640 480" style="enable-background:new 0 0 640 480;" xml:space="preserve">
<style type="text/css">
	.st0{fill:#003DA5;}
	.st1{fill:#FFB81C;}
	.st2{fill:#FFFFFF;}
	.st3{fill:none;}
</style>
<g>
	<path class="st0" d="M371,331.8h0.3H371z"/>
	<polygon class="st1" points="259.7,282.9 413.5,210.3 413.5,203.1 259.7,238 	"/>
	<polygon class="st0" points="413.5,26.6 205.3,56.4 205.3,250.4 413.5,203.1 	"/>
	<path class="st2" d="M378.7,169.5c0,18.3-11.9,25.1-29.9,25.1h-0.3c-18,0-29.9-6.6-29.9-25.1V98.1c0-17.7,11.9-25.1,29.9-25.1h0.3
		c18,0,29.9,7.5,29.9,25.1v21.8H359v-18.7c0-8.3-4.1-10.9-10.4-10.9c-6.3,0-10.4,2.5-10.4,10.9v65.2c0,8.3,4.1,10.9,10.4,10.9
		c6.3,0,10.4-2.5,10.4-10.9v-21.6h19.7V169.5z"/>
	<path class="st2" d="M280.1,74.3v92.1c0,8.5-3.7,10.9-10.2,10.9c-6.5,0-10.2-2.4-10.2-10.9V74.3H240v95.1
		c0,18.5,11.6,25.1,29.6,25.1h0.7c18,0,29.6-6.8,29.6-25.1V74.3H280.1z"/>
	<path class="st0" d="M329.1,376.8c0,8.5-4.4,10.9-10.9,10.9h-10.4v-37.2h10.4c6.5,0,10.9,2.4,10.9,10.9V376.8z M348.8,379.5v-21.2
		c0-18-11.9-25.1-29.9-25.1h-30.7V452h19.7v-47.4h9.8l15.1,47.4h20l-17-50.4C344,398,348.8,390.9,348.8,379.5"/>
	<path class="st0" d="M406.8,387l-13.9-7.8c-5.6-3.2-7.6-5.9-7.6-12.1V359c0-7.5,4.2-10.2,10-10.2s10,2.7,10,10.2v16.6h19.3v-19.4
		c0-17.7-12.9-24.4-29.2-24.4h-0.3c-16.3,0-29.2,6.8-29.2,24.4v15.6c0,12.4,6.6,17.8,18.2,24.4l13.7,7.8c5.9,3.2,7.8,6.3,7.8,12.4
		v9.3c0,7.3-4.2,10.5-10.2,10.5c-5.9,0-10.2-3.2-10.2-10.5v-18h-19.4v20.7c0,18.5,11.4,24.8,29.4,24.8h0.3c18,0,29.4-6.5,29.4-24.8
		v-17.1C425,398.7,418.2,393.5,406.8,387"/>
	<rect x="444.1" y="333.2" class="st0" width="19.7" height="118.8"/>
	<path class="st0" d="M526.3,423.8c0,8.5-4.4,10.9-10.9,10.9h-10v-84.2h10c6.5,0,10.9,2.4,10.9,10.9V423.8z M516.1,333.2h-30.4V452
		h30.4c18,0,29.9-7.1,29.9-25.1v-68.6C546,340.3,534.1,333.2,516.1,333.2"/>
	<polygon class="st0" points="586.2,434.7 586.2,400.4 613.4,400.4 613.4,383.1 586.2,383.1 586.2,350.5 618.6,350.5 618.6,333.2 
		566.5,333.2 566.5,452 619.1,452 619.1,434.7 	"/>
	<path class="st0" d="M61.8,376.8c0,8.5-4.4,10.9-10.9,10.9H40.6v-37.2h10.4c6.5,0,10.9,2.4,10.9,10.9V376.8z M81.5,379.5v-21.2
		c0-18-11.9-25.1-29.9-25.1H20.9V452h19.7v-47.4h9.8L65.5,452h20l-17-50.4C76.7,398,81.5,390.9,81.5,379.5"/>
	<rect x="102.3" y="333.2" class="st0" width="19.7" height="118.8"/>
	<polygon class="st0" points="170.6,421.3 156.8,333.2 136.8,333.2 159.2,452 180.9,452 203.3,333.2 184.3,333.2 	"/>
	<polygon class="st0" points="237.1,400.4 264.2,400.4 264.2,383.1 237.1,383.1 237.1,350.5 269.5,350.5 269.5,333.2 217.4,333.2 
		217.4,452 270,452 270,434.7 237.1,434.7 	"/>
</g>
<rect class="st3" width="640" height="480"/>
</svg>
